<?xml version="1.0" standalone="no"?>
<!DOCTYPE svg PUBLIC "-//W3C//DTD SVG 20010904//EN"
 "http://www.w3.org/TR/2001/REC-SVG-20010904/DTD/svg10.dtd">
<svg version="1.0" xmlns="http://www.w3.org/2000/svg"
 width="297.000000pt" height="297.000000pt" viewBox="0 0 297.000000 297.000000"
 preserveAspectRatio="xMidYMid meet">
<metadata>
Created by potrace 1.14, written by Peter Selinger 2001-2017
</metadata>
<g transform="translate(0.000000,297.000000) scale(0.100000,-0.100000)"
fill="#000000" stroke="none">
<path d="M1707 2903 c-136 -34 -138 -35 -197 -82 -71 -57 -126 -133 -187 -261
-19 -41 -39 -82 -44 -90 -5 -8 -29 -53 -52 -100 -24 -47 -72 -139 -107 -205
-35 -66 -68 -130 -74 -142 -6 -13 -14 -23 -18 -23 -3 0 -9 -13 -13 -30 -4 -16
-11 -30 -16 -30 -6 0 -8 -4 -5 -9 4 -5 1 -11 -6 -13 -9 -3 -7 -13 6 -34 15
-23 16 -26 3 -16 -9 8 -19 22 -22 33 -4 11 -11 17 -16 14 -5 -4 -9 2 -9 12 0
15 -2 16 -10 3 -8 -12 -10 -11 -10 7 0 12 -5 25 -11 28 -6 4 -8 13 -6 19 3 7
0 13 -6 14 -23 2 -47 8 -52 14 -3 3 7 4 24 3 33 -3 34 19 1 28 -13 3 -17 1
-13 -10 6 -16 -17 -14 -29 2 -5 6 -8 5 -8 -4 0 -11 -3 -11 -17 0 -14 12 -16
12 -8 0 12 -20 13 -61 1 -68 -5 -3 -6 -1 -2 5 3 6 1 14 -5 17 -5 4 -8 13 -5
21 3 7 1 16 -3 19 -10 6 -33 -19 -25 -27 3 -4 -4 -17 -16 -31 -12 -14 -21 -28
-20 -32 1 -4 -9 -13 -22 -20 -13 -6 -21 -18 -20 -26 11 -44 10 -48 -6 -42 -15
6 -16 5 -2 -13 14 -18 14 -18 -3 -5 -17 14 -18 16 -2 27 9 7 13 14 8 16 -4 2
-20 -9 -35 -24 -15 -15 -23 -28 -18 -28 4 0 11 -7 14 -16 6 -15 4 -15 -18 0
-31 20 -47 21 -20 1 16 -12 17 -14 2 -15 -9 0 -24 7 -32 16 -9 8 -16 11 -16 6
0 -5 10 -17 23 -26 14 -11 16 -15 5 -12 -18 5 -15 -15 6 -43 9 -12 8 -13 -4
-6 -24 14 -49 13 -63 -4 -9 -12 -9 -13 0 -7 7 4 13 3 13 -2 0 -6 -11 -13 -25
-16 -23 -6 -24 -8 -10 -22 8 -8 15 -20 15 -25 0 -5 5 -9 11 -9 5 0 7 4 4 10
-3 6 1 7 10 4 14 -6 14 -8 -2 -20 -14 -11 -14 -14 -3 -12 9 2 14 -4 14 -15 -2
-13 1 -15 11 -7 9 8 14 6 19 -5 3 -9 2 -13 -4 -10 -6 3 -10 2 -10 -3 0 -5 -18
-27 -41 -48 -22 -22 -56 -54 -76 -72 -32 -31 -61 -38 -56 -14 2 6 -4 9 -12 5
-14 -5 -13 -7 1 -18 15 -11 15 -14 -6 -38 -13 -15 -28 -27 -34 -27 -6 0 -2 7
8 15 11 8 15 15 9 15 -13 0 -26 -18 -29 -37 -1 -6 -12 -22 -24 -35 -13 -13
-20 -18 -16 -11 4 7 -1 9 -15 6 -13 -4 -17 -8 -9 -13 8 -5 7 -11 -3 -22 -14
-13 -13 -18 9 -44 13 -16 32 -39 42 -52 9 -12 23 -29 29 -37 7 -7 13 -16 13
-19 0 -3 12 -18 26 -33 15 -15 33 -41 40 -58 7 -16 13 -26 14 -22 0 12 30 -20
30 -32 0 -6 5 -11 11 -11 11 0 3 -57 -11 -75 -4 -5 -25 -43 -45 -82 -21 -41
-42 -70 -48 -66 -5 3 -7 1 -4 -4 6 -9 -46 -128 -85 -198 -6 -11 -49 -94 -96
-185 -112 -218 -141 -273 -153 -284 -17 -18 -9 -25 21 -16 18 5 30 5 30 0 0
-5 10 -6 23 -2 12 4 168 7 347 6 303 -1 326 0 342 17 10 10 18 22 18 27 0 5
40 90 89 188 48 98 90 185 92 193 4 9 16 3 42 -21 36 -34 50 -57 25 -42 -7 4
-8 3 -4 -5 4 -6 3 -17 -3 -24 -7 -10 -4 -13 12 -14 13 -1 17 1 10 5 -8 5 -9
12 -2 22 8 13 10 13 18 1 5 -8 7 -21 4 -30 -4 -13 -3 -13 5 -2 12 17 35 4 28
-16 -3 -8 -1 -11 4 -8 6 3 10 2 10 -4 0 -5 9 -13 20 -16 11 -3 20 -10 20 -15
0 -4 26 -35 57 -67 32 -33 87 -92 122 -131 36 -40 68 -72 72 -72 4 0 27 17 52
38 24 20 58 48 77 62 18 14 52 42 74 62 23 21 44 38 47 38 3 0 19 11 35 25 16
14 34 29 39 33 8 6 64 49 113 87 7 5 22 19 32 29 16 15 20 16 24 5 9 -28 11
-99 3 -99 -5 0 -5 -6 1 -12 5 -7 12 -38 16 -68 3 -30 8 -66 10 -80 3 -13 7
-39 8 -58 1 -18 7 -36 12 -40 8 -4 479 -14 660 -12 35 0 37 -2 25 -18 -12 -15
-12 -15 7 1 12 10 34 17 50 15 46 -3 57 9 51 55 -3 22 -11 44 -19 48 -7 5 -9
9 -4 9 5 0 4 6 -1 13 -12 13 -54 131 -59 162 -2 11 -10 47 -18 80 -8 33 -17
85 -21 115 -3 30 -10 69 -15 85 -6 17 -12 50 -16 75 -5 41 -8 70 -18 193 -4
41 26 93 46 81 7 -4 8 -2 4 4 -4 6 5 18 19 28 13 9 22 21 18 28 -3 6 -3 8 2 4
4 -4 18 3 30 17 13 13 26 21 30 17 4 -4 6 -2 5 3 -5 22 1 35 15 35 9 0 20 11
25 25 5 14 12 25 14 25 3 0 2 -7 -1 -17 -4 -11 -3 -14 5 -9 7 4 12 14 12 22 0
8 5 12 10 9 6 -3 10 -2 10 4 0 5 -6 12 -12 15 -7 3 -1 3 14 1 19 -2 25 0 22
10 -7 17 12 29 22 14 5 -8 3 -9 -6 -4 -9 5 -11 4 -6 -3 5 -9 14 -7 32 4 29 20
32 29 4 14 -24 -13 -27 -2 -3 15 21 16 26 66 6 58 -8 -3 -13 2 -13 16 0 12 -6
21 -13 21 -16 0 -67 58 -67 76 0 8 -5 14 -10 14 -6 0 -15 11 -22 25 -6 13 -15
22 -19 19 -9 -5 -14 19 -9 41 1 5 -2 7 -6 3 -6 -7 -64 57 -64 72 0 4 13 13 29
20 34 14 71 50 52 50 -7 0 -9 5 -6 10 3 6 0 10 -7 10 -11 0 -10 2 0 9 10 6 9
10 -7 14 -15 4 -19 10 -14 23 4 12 3 15 -5 10 -7 -4 -12 -1 -12 9 0 11 5 15
14 12 8 -3 22 1 33 9 17 14 16 14 -4 4 -19 -9 -23 -8 -23 5 0 9 5 13 10 10 6
-3 10 -1 10 5 0 7 -7 9 -16 6 -9 -3 -18 -6 -20 -6 -3 0 -3 -4 1 -9 10 -17 -15
-23 -31 -7 -8 9 -13 16 -9 16 4 0 -1 7 -10 16 -13 13 -13 19 -3 33 10 13 10
14 -1 4 -16 -14 -41 -6 -41 13 0 8 -4 14 -10 14 -5 0 -7 7 -4 15 3 8 9 13 12
12 4 -1 8 1 10 6 6 18 1 19 -17 3 -16 -15 -19 -15 -24 -1 -4 8 -14 15 -23 15
-14 0 -14 3 -4 15 11 13 15 13 22 3 5 -9 7 -5 5 11 -2 14 -11 25 -21 27 -13 2
-15 -1 -6 -11 8 -9 6 -14 -5 -19 -9 -3 -13 -2 -10 4 3 6 1 10 -4 10 -6 0 -10
5 -8 11 5 23 -47 19 -85 -6 -44 -29 -43 -30 -53 60 -8 78 -11 94 -18 130 -3
17 -9 55 -13 85 -3 30 -7 57 -9 60 -3 5 -10 43 -21 115 -9 64 -15 103 -20 125
-2 14 -7 39 -10 55 -11 65 -58 183 -78 197 -6 4 -7 8 -2 8 12 0 -49 46 -88 67
-114 60 -295 74 -449 36z m29 -924 c3 -30 7 -65 8 -79 1 -14 4 -30 7 -35 3 -6
5 -27 4 -47 0 -21 4 -38 10 -38 5 0 3 -5 -5 -10 -9 -6 -10 -10 -3 -10 6 0 12
-8 11 -17 0 -10 3 -34 6 -53 3 -19 8 -62 11 -95 3 -32 8 -61 10 -64 3 -2 -1
-11 -8 -19 -10 -13 -9 -14 1 -8 10 6 13 3 12 -10 -1 -11 -1 -21 0 -24 12 -32
8 -50 -11 -50 -13 0 -18 -4 -13 -12 5 -8 2 -9 -10 -5 -10 4 -20 7 -22 7 -3 0
-3 4 1 9 3 5 0 13 -7 17 -7 4 -10 4 -6 -1 4 -4 3 -14 -4 -22 -6 -8 -7 -13 -2
-12 20 3 34 -2 34 -12 0 -6 -7 -9 -15 -5 -9 3 -15 0 -15 -9 0 -17 -36 -38 -50
-30 -6 4 -10 3 -9 -2 3 -20 -2 -33 -13 -31 -7 2 -12 -3 -10 -10 1 -8 -2 -11
-8 -7 -5 3 -10 2 -10 -4 0 -5 -14 -16 -31 -25 -22 -11 -28 -12 -20 -2 6 7 8
15 5 18 -3 3 0 9 7 14 7 4 10 3 6 -3 -3 -5 0 -10 8 -10 11 0 12 4 4 13 -7 9
-18 10 -35 4 -17 -7 -23 -6 -21 3 1 7 -4 11 -11 9 -8 -1 -11 2 -8 7 4 5 -1 14
-10 19 -9 5 -14 15 -12 23 6 16 -20 38 -44 39 -21 0 -24 20 -6 38 7 7 9 12 5
12 -4 0 -2 10 5 23 7 12 13 24 13 27 6 31 70 148 78 143 6 -4 7 -1 2 6 -4 8 4
35 18 64 14 29 38 79 52 112 15 33 38 83 51 112 13 28 24 60 24 71 0 18 10 35
16 29 2 -2 6 -28 10 -58z m-893 27 c4 -10 1 -13 -8 -9 -8 3 -12 9 -9 14 7 12
11 11 17 -5z m-53 -38 c0 -19 -2 -20 -11 -8 -8 11 -9 8 -4 -15 6 -29 6 -29
-10 -10 -16 20 -16 20 -11 -3 2 -13 2 -22 -1 -19 -3 3 -14 -3 -26 -13 -11 -11
-24 -17 -30 -13 -5 3 1 12 14 19 13 7 22 15 21 19 -4 6 47 65 55 65 2 0 3 -10
3 -22z m100 6 c0 -8 -19 -13 -24 -6 -3 5 1 9 9 9 8 0 15 -2 15 -3z m-60 -64
c0 -5 -2 -10 -4 -10 -3 0 -8 5 -11 10 -3 6 -1 10 4 10 6 0 11 -4 11 -10z m1
-63 c-6 -8 -7 -18 -3 -22 4 -5 1 -5 -6 -1 -10 6 -10 11 -1 22 6 8 14 14 16 14
3 0 0 -6 -6 -13z m-171 -17 c0 -5 -5 -10 -11 -10 -5 0 -7 5 -4 10 3 6 8 10 11
10 2 0 4 -4 4 -10z m385 0 c3 -5 1 -10 -4 -10 -6 0 -11 5 -11 10 0 6 2 10 4
10 3 0 8 -4 11 -10z m-155 -21 c0 -5 -4 -9 -8 -9 -5 0 -9 7 -9 15 0 8 4 12 9
9 4 -3 8 -9 8 -15z m100 5 c0 -8 -19 -13 -24 -6 -3 5 1 9 9 9 8 0 15 -2 15 -3z
m76 -16 c5 4 6 3 2 -2 -4 -5 0 -14 9 -21 13 -9 13 -14 3 -20 -8 -5 -11 -4 -7
2 6 10 -19 28 -34 25 -3 0 -6 6 -6 13 0 10 4 12 12 5 7 -5 16 -6 21 -2z m-276
-8 c0 -5 -5 -10 -11 -10 -5 0 -7 5 -4 10 3 6 8 10 11 10 2 0 4 -4 4 -10z m155
0 c3 -5 1 -10 -4 -10 -6 0 -11 5 -11 10 0 6 2 10 4 10 3 0 8 -4 11 -10z m65 0
c0 -5 -2 -10 -4 -10 -3 0 -8 5 -11 10 -3 6 -1 10 4 10 6 0 11 -4 11 -10z
m-380 -20 c0 -5 -2 -10 -4 -10 -3 0 -8 5 -11 10 -3 6 -1 10 4 10 6 0 11 -4 11
-10z m120 -14 c0 -3 -4 -8 -10 -11 -5 -3 -10 -1 -10 4 0 6 5 11 10 11 6 0 10
-2 10 -4z m130 -2 c0 -8 -19 -13 -24 -6 -3 5 1 9 9 9 8 0 15 -2 15 -3z m250
-37 c0 -8 -3 -8 -9 2 -7 11 -11 10 -19 -5 -9 -16 -10 -15 -9 8 2 22 5 24 20
17 9 -5 17 -15 17 -22z m-100 13 c0 -5 -5 -10 -11 -10 -5 0 -7 5 -4 10 3 6 8
10 11 10 2 0 4 -4 4 -10z m36 -5 c-1 -8 -5 -17 -8 -21 -5 -4 -4 16 1 34 3 9 9
-1 7 -13z m81 -24 c-1 -19 -20 -22 -34 -6 -4 4 -2 5 5 1 7 -4 15 -1 18 8 8 21
13 20 11 -3z m-340 -6 c0 -8 -4 -12 -9 -9 -5 3 -6 10 -3 15 9 13 12 11 12 -6z
m-197 1 c0 -2 -7 -7 -16 -10 -8 -3 -12 -2 -9 4 6 10 25 14 25 6z m176 -31 c-1
-8 -5 -17 -8 -21 -5 -4 -4 16 1 34 3 9 9 -1 7 -13z m77 -10 c-7 -21 -12 -19
-10 4 0 11 5 18 9 15 4 -3 5 -11 1 -19z m311 10 c-4 -8 -11 -12 -16 -9 -6 4
-5 10 3 15 19 12 19 11 13 -6z m32 -27 c14 -17 15 -20 2 -9 -9 7 -22 10 -27 6
-7 -3 -8 0 -5 9 8 20 7 20 30 -6z m-616 -2 c0 -3 -4 -8 -10 -11 -5 -3 -10 -1
-10 4 0 6 5 11 10 11 6 0 10 -2 10 -4z m536 -8 c3 -4 -1 -5 -10 -4 -8 1 -18 5
-22 8 -3 4 1 5 10 4 8 -1 18 -5 22 -8z m-439 -13 c0 -8 -4 -12 -9 -9 -5 3 -6
10 -3 15 9 13 12 11 12 -6z m518 -23 c2 -12 1 -24 -3 -26 -4 -2 -8 9 -8 25 -2
33 4 33 11 1z m52 0 c15 -20 17 -29 8 -29 -8 0 -13 3 -12 6 1 3 -4 16 -11 29
-17 31 -10 28 15 -6z m-492 -1 c-9 -8 -36 -10 -30 -2 2 4 11 8 20 8 8 0 13 -3
10 -6z m236 -14 c-10 -9 -11 -8 -5 6 3 10 9 15 12 12 3 -3 0 -11 -7 -18z m83
7 c3 -8 2 -12 -4 -9 -6 3 -10 10 -10 16 0 14 7 11 14 -7z m-161 -29 c-3 -9 -8
-14 -10 -11 -3 3 -2 9 2 15 9 16 15 13 8 -4z m-235 -30 c-3 -3 -9 2 -12 12 -6
14 -5 15 5 6 7 -7 10 -15 7 -18z m-24 -1 c3 -8 2 -12 -4 -9 -6 3 -10 10 -10
16 0 14 7 11 14 -7z m66 6 c0 -5 -2 -10 -4 -10 -3 0 -8 5 -11 10 -3 6 -1 10 4
10 6 0 11 -4 11 -10z m265 0 c3 -6 -1 -7 -9 -4 -18 7 -21 14 -7 14 6 0 13 -4
16 -10z m286 -13 c-10 -9 -11 -8 -5 6 3 10 9 15 12 12 3 -3 0 -11 -7 -18z
m-437 -13 c3 -8 2 -12 -4 -9 -6 3 -10 10 -10 16 0 14 7 11 14 -7z m541 -54 c3
-6 -1 -7 -9 -4 -18 7 -21 14 -7 14 6 0 13 -4 16 -10z m-637 -25 c-3 -3 -9 2
-12 12 -6 14 -5 15 5 6 7 -7 10 -15 7 -18z m37 -16 c11 -16 1 -19 -13 -3 -7 8
-8 14 -3 14 5 0 13 -5 16 -11z m62 -4 c0 -8 -4 -12 -9 -9 -5 3 -6 10 -3 15 9
13 12 11 12 -6z m63 5 c0 -5 -2 -10 -4 -10 -3 0 -8 5 -11 10 -3 6 -1 10 4 10
6 0 11 -4 11 -10z m90 4 c0 -8 -19 -13 -24 -6 -3 5 1 9 9 9 8 0 15 -2 15 -3z
m-40 -20 c0 -8 -19 -13 -24 -6 -3 5 1 9 9 9 8 0 15 -2 15 -3z m535 -14 c3 -6
-1 -7 -9 -4 -18 7 -21 14 -7 14 6 0 13 -4 16 -10z m-674 -17 c13 -16 12 -17
-3 -4 -10 7 -18 15 -18 17 0 8 8 3 21 -13z m1313 9 c3 -5 -1 -9 -9 -9 -8 0
-15 4 -15 9 0 4 4 8 9 8 6 0 12 -4 15 -8z m-1084 -36 c0 -3 -4 -8 -10 -11 -5
-3 -10 -1 -10 4 0 6 5 11 10 11 6 0 10 -2 10 -4z m-105 -26 c3 -5 1 -10 -4
-10 -6 0 -11 5 -11 10 0 6 2 10 4 10 3 0 8 -4 11 -10z m-38 -32 c2 -18 0 -20
-7 -8 -12 18 -13 30 -2 30 4 0 9 -10 9 -22z m218 12 c3 -5 1 -10 -4 -10 -6 0
-11 5 -11 10 0 6 2 10 4 10 3 0 8 -4 11 -10z m205 -40 c0 -5 -5 -10 -11 -10
-5 0 -7 5 -4 10 3 6 8 10 11 10 2 0 4 -4 4 -10z m-389 -23 c-10 -9 -11 -8 -5
6 3 10 9 15 12 12 3 -3 0 -11 -7 -18z m83 5 c2 -4 -5 -9 -17 -9 -17 -2 -19 0
-7 7 18 12 18 12 24 2z m-3 -79 c13 -16 12 -17 -3 -4 -10 7 -18 15 -18 17 0 8
8 3 21 -13z m33 -29 c3 -8 2 -12 -4 -9 -6 3 -10 10 -10 16 0 14 7 11 14 -7z
m96 -8 c0 -3 -4 -8 -10 -11 -5 -3 -10 -1 -10 4 0 6 5 11 10 11 6 0 10 -2 10
-4z m140 -6 c0 -5 -2 -10 -4 -10 -3 0 -8 5 -11 10 -3 6 -1 10 4 10 6 0 11 -4
11 -10z m-170 -14 c0 -2 -8 -10 -17 -17 -16 -13 -17 -12 -4 4 13 16 21 21 21
13z m10 -31 c-7 -8 -17 -15 -23 -15 -6 0 -2 7 9 15 25 19 30 19 14 0z m80 1
c0 -2 -8 -10 -17 -17 -16 -13 -17 -12 -4 4 13 16 21 21 21 13z m-79 -39 c-10
-9 -11 -8 -5 6 3 10 9 15 12 12 3 -3 0 -11 -7 -18z m837 -22 c-3 -3 -9 2 -12
12 -6 14 -5 15 5 6 7 -7 10 -15 7 -18z m-798 5 c0 -5 -2 -10 -4 -10 -3 0 -8 5
-11 10 -3 6 -1 10 4 10 6 0 11 -4 11 -10z m40 -25 c0 -2 -9 -3 -19 -2 -11 0
-18 5 -15 9 4 6 34 0 34 -7z m680 1 c0 -2 -8 -10 -17 -17 -16 -13 -17 -12 -4
4 13 16 21 21 21 13z m-465 -24 c-3 -3 -11 0 -18 7 -9 10 -8 11 6 5 10 -3 15
-9 12 -12z m-210 -10 c-3 -3 -11 0 -18 7 -9 10 -8 11 6 5 10 -3 15 -9 12 -12z
m90 9 c3 -5 2 -12 -3 -15 -5 -3 -9 1 -9 9 0 17 3 19 12 6z m-65 -21 c-6 -11
-13 -20 -16 -20 -2 0 0 9 6 20 6 11 13 20 16 20 2 0 0 -9 -6 -20z m90 -30 c0
-5 -2 -10 -4 -10 -3 0 -8 5 -11 10 -3 6 -1 10 4 10 6 0 11 -4 11 -10z m-27
-55 c-7 -21 -12 -19 -10 4 0 11 5 18 9 15 4 -3 5 -11 1 -19z m107 15 c0 -5 -5
-10 -11 -10 -5 0 -7 5 -4 10 3 6 8 10 11 10 2 0 4 -4 4 -10z m311 -13 c-10 -9
-11 -8 -5 6 3 10 9 15 12 12 3 -3 0 -11 -7 -18z m-56 -7 c3 -5 1 -10 -4 -10
-6 0 -11 5 -11 10 0 6 2 10 4 10 3 0 8 -4 11 -10z m-338 -15 c0 -8 -4 -12 -9
-9 -5 3 -6 10 -3 15 9 13 12 11 12 -6z m58 -4 c3 -5 2 -12 -3 -15 -5 -3 -9 1
-9 9 0 17 3 19 12 6z m-24 -28 c12 -16 12 -17 -2 -6 -9 7 -20 9 -24 5 -5 -4
-5 -1 -1 6 9 16 11 15 27 -5z m49 -13 c0 -5 -5 -10 -11 -10 -5 0 -7 5 -4 10 3
6 8 10 11 10 2 0 4 -4 4 -10z m220 -34 c0 -3 -4 -8 -10 -11 -5 -3 -10 -1 -10
4 0 6 5 11 10 11 6 0 10 -2 10 -4z m-100 -131 c0 -2 -9 -3 -19 -2 -11 0 -18 5
-15 9 4 6 34 0 34 -7z"/>
<path d="M1515 1511 c-3 -5 -2 -12 3 -15 5 -3 9 1 9 9 0 17 -3 19 -12 6z"/>
<path d="M1690 1485 c10 -12 10 -15 -4 -15 -9 0 -16 -5 -16 -10 0 -7 7 -7 21
0 16 9 18 14 8 26 -6 8 -14 14 -16 14 -3 0 0 -7 7 -15z"/>
<path d="M1510 1470 c-9 -6 -10 -10 -3 -10 6 0 15 5 18 10 8 12 4 12 -15 0z"/>
<path d="M1473 1453 c4 -3 1 -13 -6 -22 -11 -14 -10 -14 6 -2 20 15 22 31 5
31 -6 0 -8 -3 -5 -7z"/>
<path d="M1637 1441 c14 -17 33 -20 33 -5 0 3 -4 3 -9 0 -5 -3 -11 1 -15 9 -3
8 -10 15 -16 15 -5 0 -2 -9 7 -19z"/>
<path d="M1495 1430 c-18 -20 -18 -21 0 -14 11 5 16 4 12 -3 -3 -5 0 -10 8
-10 8 0 15 4 15 9 0 4 -5 8 -11 8 -6 0 -9 7 -5 15 7 20 3 19 -19 -5z"/>
<path d="M1557 1417 c18 -10 20 -16 11 -32 -9 -16 -8 -18 2 -8 7 6 19 9 26 6
8 -3 14 1 14 8 0 7 -3 10 -6 7 -3 -4 -14 2 -25 13 -10 10 -25 19 -31 19 -7 -1
-3 -6 9 -13z"/>
<path d="M1672 1405 c4 -4 3 -14 -4 -22 -8 -11 -7 -12 6 -7 19 7 21 20 4 30
-7 4 -10 4 -6 -1z"/>
<path d="M1532 1376 c-9 -19 -8 -27 4 -36 10 -9 14 -9 14 -1 0 6 -5 11 -11 11
-7 0 -5 10 5 25 9 14 13 25 8 25 -5 0 -14 -11 -20 -24z"/>
<path d="M1600 1360 c-8 -5 -11 -13 -6 -17 5 -4 11 -2 13 5 3 6 10 9 15 6 7
-4 8 -2 4 4 -9 14 -7 14 -26 2z"/>
<path d="M1563 1328 c0 -13 1 -17 4 -10 3 6 10 9 16 5 7 -4 6 1 -2 10 -17 21
-17 21 -18 -5z"/>
<path d="M1625 1330 c6 -10 4 -12 -8 -7 -21 8 -22 3 -3 -12 10 -9 15 -8 19 3
4 9 1 18 -5 22 -7 5 -8 2 -3 -6z"/>
<path d="M964 2041 c0 -10 6 -18 13 -18 7 0 13 4 13 7 0 4 -6 12 -13 18 -10 8
-13 6 -13 -7z"/>
<path d="M2517 2009 c7 -7 15 -10 18 -7 3 3 -2 9 -12 12 -14 6 -15 5 -6 -5z"/>
<path d="M660 1985 c0 -5 5 -17 10 -25 5 -8 10 -10 10 -5 0 6 -5 17 -10 25 -5
8 -10 11 -10 5z"/>
<path d="M2659 1974 c-6 -8 -6 -14 0 -18 5 -4 12 -2 16 4 4 6 10 8 14 6 4 -3
8 1 8 8 0 16 -24 17 -38 0z"/>
<path d="M2730 1971 c0 -7 -5 -9 -12 -5 -7 5 -8 3 -3 -5 5 -9 10 -10 18 -2 6
6 8 14 4 18 -4 3 -7 1 -7 -6z"/>
<path d="M661 1933 c-1 -17 16 -25 25 -12 4 7 3 9 -4 5 -5 -3 -13 0 -15 6 -4
9 -6 10 -6 1z"/>
<path d="M2723 1933 c4 -6 3 -13 -2 -15 -5 -1 -3 -11 4 -22 13 -17 14 -17 11
8 -1 14 -6 29 -11 34 -4 4 -5 2 -2 -5z"/>
<path d="M648 1886 c-19 -14 -23 -26 -10 -26 4 0 13 9 20 20 14 23 13 24 -10
6z"/>
<path d="M2663 1884 c-17 -18 -16 -23 5 -20 9 2 16 6 15 10 -5 21 -9 23 -20
10z"/>
<path d="M606 1854 c-4 -9 -4 -19 -1 -22 3 -3 5 0 5 7 0 7 4 9 10 6 6 -3 7 1
4 9 -8 20 -10 20 -18 0z"/>
<path d="M2695 1829 c-4 -6 -4 -13 -1 -16 3 -4 6 -1 6 6 0 7 5 9 12 5 7 -4 8
-3 4 4 -9 15 -13 15 -21 1z"/>
<path d="M540 1806 c0 -8 4 -17 9 -20 5 -4 7 3 4 14 -6 23 -13 26 -13 6z"/>
<path d="M503 1745 c-3 -9 -3 -18 -1 -21 3 -3 8 4 11 16 6 23 -1 27 -10 5z"/>
<path d="M555 1750 c3 -5 8 -10 11 -10 2 0 4 5 4 10 0 6 -5 10 -11 10 -5 0 -7
-4 -4 -10z"/>
<path d="M2770 1740 c-9 -6 -10 -10 -3 -10 6 0 15 5 18 10 8 12 4 12 -15 0z"/>
<path d="M516 1583 c-6 -14 -5 -15 5 -6 7 7 10 15 7 18 -3 3 -9 -2 -12 -12z"/>
<path d="M2775 1590 c3 -5 8 -10 11 -10 2 0 4 5 4 10 0 6 -5 10 -11 10 -5 0
-7 -4 -4 -10z"/>
<path d="M509 1543 c-13 -16 -12 -17 4 -4 9 7 17 15 17 17 0 8 -8 3 -21 -13z"/>
<path d="M374 1488 c6 -20 -4 -23 -22 -8 -7 5 -5 2 3 -7 18 -21 40 -6 24 17
-9 13 -10 12 -5 -2z"/>
<path d="M415 1490 c-2 -3 5 -6 15 -7 11 -1 22 2 24 5 3 4 -4 8 -15 8 -11 0
-22 -3 -24 -6z"/>
<path d="M190 1310 c-9 -6 -10 -10 -3 -10 6 0 15 5 18 10 8 12 4 12 -15 0z"/>
<path d="M176 1245 c-3 -8 -1 -15 4 -15 6 0 10 7 10 15 0 8 -2 15 -4 15 -2 0
-6 -7 -10 -15z"/>
<path d="M250 1235 c0 -5 5 -17 10 -25 5 -8 10 -10 10 -5 0 6 -5 17 -10 25 -5
8 -10 11 -10 5z"/>
<path d="M349 1073 c0 -5 -2 -16 -4 -26 -2 -11 -1 -16 3 -13 8 8 14 46 7 46
-3 0 -5 -3 -6 -7z"/>
<path d="M380 1076 c0 -2 8 -10 18 -17 15 -13 16 -12 3 4 -13 16 -21 21 -21
13z"/>
<path d="M2625 959 c-4 -6 -4 -13 -1 -16 3 -4 6 -1 6 6 0 7 5 9 12 5 7 -4 8
-3 4 4 -9 15 -13 15 -21 1z"/>
<path d="M2693 888 c0 -13 1 -17 4 -10 3 6 10 9 16 5 7 -4 6 1 -2 10 -17 21
-17 21 -18 -5z"/>
<path d="M2656 887 c3 -10 9 -15 12 -12 3 3 0 11 -7 18 -10 9 -11 8 -5 -6z"/>
<path d="M2636 863 c-6 -14 -5 -15 5 -6 7 7 10 15 7 18 -3 3 -9 -2 -12 -12z"/>
<path d="M2673 843 c0 -7 4 -13 8 -13 4 0 9 6 12 13 3 8 0 14 -7 14 -7 0 -13
-6 -13 -14z"/>
<path d="M2632 815 c3 -3 16 -8 28 -10 12 -2 20 -1 16 2 -4 4 -16 8 -28 10
-12 2 -19 1 -16 -2z"/>
<path d="M2655 691 c-3 -5 -2 -12 3 -15 5 -3 9 1 9 9 0 17 -3 19 -12 6z"/>
<path d="M80 371 c0 -6 4 -13 10 -16 6 -3 7 1 4 9 -7 18 -14 21 -14 7z"/>
<path d="M95 331 c-3 -5 -2 -12 3 -15 5 -3 9 1 9 9 0 17 -3 19 -12 6z"/>
<path d="M1815 330 c-3 -5 -3 -10 2 -11 4 0 -1 -5 -12 -10 -15 -6 -10 -7 18
-4 27 4 36 2 31 -7 -4 -7 -3 -8 5 -4 16 10 3 27 -17 24 -9 -2 -16 3 -14 10 3
15 -4 16 -13 2z"/>
<path d="M40 281 c0 -6 4 -13 10 -16 6 -3 7 1 4 9 -7 18 -14 21 -14 7z"/>
<path d="M1734 276 c1 -8 5 -18 8 -22 4 -3 5 1 4 10 -1 8 -5 18 -8 22 -4 3 -5
-1 -4 -10z"/>
<path d="M1775 271 c-6 -11 13 -26 22 -17 4 3 1 6 -6 6 -7 0 -9 5 -6 10 3 6 4
10 1 10 -3 0 -7 -4 -11 -9z"/>
<path d="M66 255 c-11 -8 -15 -15 -9 -15 6 0 16 7 23 15 16 19 11 19 -14 0z"/>
<path d="M1106 251 c-4 -5 3 -7 14 -4 23 6 26 13 6 13 -8 0 -17 -4 -20 -9z"/>
<path d="M1231 244 c0 -11 3 -14 6 -6 3 7 2 16 -1 19 -3 4 -6 -2 -5 -13z"/>
<path d="M1695 210 c1 -11 5 -23 10 -27 4 -5 5 -2 0 6 -6 10 -2 12 16 7 13 -3
18 -3 11 0 -6 3 -9 11 -5 17 3 7 3 9 -2 5 -4 -4 -13 -3 -20 2 -8 7 -11 4 -10
-10z"/>
<path d="M1670 170 c-9 -6 -10 -10 -3 -10 6 0 15 5 18 10 8 12 4 12 -15 0z"/>
<path d="M1715 171 c-3 -5 -2 -12 3 -15 5 -3 9 1 9 9 0 17 -3 19 -12 6z"/>
<path d="M1313 155 c0 -8 4 -12 9 -9 5 3 6 10 3 15 -9 13 -12 11 -12 -6z"/>
<path d="M1685 150 c-4 -6 -11 -7 -17 -4 -6 4 -8 2 -5 -4 7 -10 32 -11 42 0 4
3 2 9 -4 12 -5 4 -12 2 -16 -4z"/>
<path d="M1615 129 c-3 -4 2 -6 10 -5 21 3 28 13 10 13 -9 0 -18 -4 -20 -8z"/>
<path d="M1303 103 c0 -9 4 -10 14 -2 7 6 13 12 13 14 0 1 -6 2 -13 2 -8 0
-14 -6 -14 -14z"/>
<path d="M1355 111 c-3 -6 5 -15 17 -21 21 -10 21 -10 6 3 -10 8 -15 17 -11
20 3 4 4 7 0 7 -3 0 -8 -4 -12 -9z"/>
<path d="M1515 70 c-2 -3 5 -6 15 -7 11 -1 22 2 24 5 3 4 -4 8 -15 8 -11 0
-22 -3 -24 -6z"/>
<path d="M2426 28 c3 -5 10 -6 15 -3 13 9 11 12 -6 12 -8 0 -12 -4 -9 -9z"/>
<path d="M2610 29 c0 -5 5 -7 10 -4 6 3 10 8 10 11 0 2 -4 4 -10 4 -5 0 -10
-5 -10 -11z"/>
<path d="M2556 17 c3 -10 9 -15 12 -12 3 3 0 11 -7 18 -10 9 -11 8 -5 -6z"/>
</g>
</svg>
